<svg version="1.0" xmlns="http://www.w3.org/2000/svg" width="1280.000000" height="1276.000000" preserveAspectRatio="xMidYMid meet"><rect id="backgroundrect" width="100%" height="100%" x="0" y="0" fill="none" stroke="none"/>
<metadata>
Created by potrace 1.15, written by Peter Selinger 2001-2017
</metadata>

<g class="currentLayer" style=""><title>Layer 1</title><g transform="translate(0, 1276) scale(0.1, -0.1)" fill="#f78800" stroke="#ef8d2b" id="svg_1" class="" opacity="1" stroke-opacity="1" fill-opacity="1">
<path d="M5987.218792013522,12754.029008001602 c-642.3295156907016,-41.187541464136594 -1143.4446035043634,-136.31114913130918 -1710.2636265108144,-324.5970529673622 c-435.4111526208725,-144.15639512447805 -965.9459129089175,-397.1655784041742 -1339.5757533335852,-638.4068926941171 c-89.23967317229594,-56.878033450474334 -91.20098467058816,-56.878033450474334 93.16229616888037,-36.28426271840604 c187.30524808690686,21.574426481214402 637.4262369449709,29.419672474383276 823.7508292827317,15.690491986337747 c628.600335202656,-47.07147595901324 1140.502636256925,-186.32459233776075 1701.4377247684995,-461.88885784781746 c244.1832815373812,-120.62065714497143 469.73410384098634,-255.9511505271345 867.8803379943066,-521.7088585457301 c187.30524808690686,-124.54328014155587 353.0360696925993,-227.51213380189733 421.68197213282696,-260.85442927286505 c105.9108209077798,-51.97475470474379 116.698034148387,-55.897377701328224 186.32459233776075,-55.897377701328224 c71.58786968766597,0 75.51049268425041,0.9806557491461092 151.02098536850082,49.03278745730546 c43.148852962428805,27.458360976091058 124.54328014155587,93.16229616888037 180.4406578428841,146.11770662277027 c183.38262509032242,176.51803484629966 297.1386919912711,380.49443066869037 351.0747581943071,633.5036139483866 c24.51639372865273,115.71737839924089 25.49704947779884,364.8039386823526 0.9806557491461092,480.5213170815935 c-62.76196794535099,298.1193477404172 -222.6088550561668,599.1806627282728 -459.9275463495252,865.9190264960145 l-42.168197213282696,47.07147595901324 l-112.77541115180256,14.709836237191638 c-242.22197003908897,31.380983972675494 -439.3337756174569,44.129508711574914 -740.3950906053125,47.07147595901324 c-172.59541184971522,1.9613114982922184 -340.2875449536999,1.9613114982922184 -372.6491846755215,0 z" id="svg_2" opacity="1" stroke="#ef8d2b" fill="#f78800"/>
<path d="M7492.5253669528,12637.330973853213 c0,-2.9419672474383276 21.574426481214402,-37.26491846755215 47.07147595901324,-76.49114843339652 c203.9763958223907,-304.00328223529385 341.268200702846,-629.580990951802 385.3977094144209,-913.9711582041738 c17.651803484629966,-110.81409965351034 14.709836237191638,-315.77115122504716 -4.903278745730546,-425.6045951294114 c-56.878033450474334,-319.6937742216316 -241.24131428994286,-635.4649254466788 -574.6642689996199,-983.5977163935476 c-59.82000069791266,-63.7426236944971 -107.87213240607201,-118.65934564667921 -105.9108209077798,-123.56262439240976 c1.9613114982922184,-5.883934494876655 841.4026327673616,-792.3698453100562 925.7390271939271,-866.8996822451605 c20.593770732068293,-17.651803484629966 22.55508223036051,-16.671147735483856 294.19672474383276,200.05377282580628 c1069.895422318405,851.2091902588228 1464.1190334751411,1124.8121442705872 2027.0154334850076,1407.2410000246666 c101.00754216204925,50.99409895559768 183.38262509032242,98.06557491461092 183.38262509032242,104.93016515863368 c0,21.574426481214402 -208.87967456812126,216.72492056129013 -402.0688571499048,374.6104961738137 c-795.3118125574946,652.1360731821626 -1740.6639547343439,1101.2764062910805 -2742.8941303616675,1303.291490615179 c-17.651803484629966,3.9226229965844372 -32.361639721821604,3.9226229965844372 -32.361639721821604,0 z" id="svg_3" opacity="1" stroke="#ef8d2b" fill="#f78800"/>
<path d="M3059.9613808123863,11640.984732720768 c-155.92426411423136,-14.709836237191638 -250.06721603225785,-29.419672474383276 -357.93934843832983,-54.916721952182115 c-104.93016515863368,-24.51639372865273 -110.81409965351034,-27.458360976091058 -205.93770732068293,-100.02688641290314 c-1294.4655888728641,-979.6750933969631 -2168.2298613620474,-2443.7941268721042 -2412.4131428994287,-4040.30168648197 c-28.439016725237167,-190.24721533434519 -37.26491846755215,-277.52557700834893 -24.51639372865273,-251.04787178140396 c4.903278745730546,10.787213240607201 23.53573797950662,57.85868919962044 42.168197213282696,103.94950940948758 c202.9957400732446,512.8829568034151 772.756730327134,926.7196829430732 1732.818708741175,1258.181326154458 c525.6314815423145,182.4019693411763 1024.7852578576842,305.96459373358607 2287.869862757873,569.7609902538894 c1145.4059150026555,238.29934704250454 1511.1905094341544,331.4616432113849 1879.9170711130914,477.5793498341552 c308.9065609810244,122.58196864326365 521.7088585457301,263.79639652030335 610.9485317180261,406.97213589563535 c31.380983972675494,50.01344320645157 65.70393519278932,149.0596738702086 65.70393519278932,190.24721533434519 c0,118.65934564667921 -272.62229826261836,392.2622996584437 -583.490170741935,585.4514822402272 c-593.296728233396,366.76525018064484 -1342.5177205810235,657.0393519278932 -2032.8993679798843,785.5052550660334 c-368.72656167893706,69.62655818937375 -736.472467608728,94.14295191802648 -1002.2301756273237,68.64590244022764 z" id="svg_4" opacity="1" stroke="#ef8d2b" fill="#f78800"/>
<path d="M10669.849994186194,10668.174229567827 c-736.472467608728,-473.6567268375708 -1562.184608389752,-1080.6826355590124 -2121.158385403034,-1560.2232968914598 c-81.39442717912706,-69.62655818937375 -123.56262439240976,-111.79475540265645 -119.64000139582532,-121.60131289411754 c9.806557491461092,-27.458360976091058 804.1377142998095,-1020.8626348610997 816.8862390387089,-1020.8626348610997 c6.864590244022764,-0.9806557491461092 68.64590244022764,27.458360976091058 138.2724606296014,61.78131219620488 c401.08820140075863,202.0150843240985 810.0216487946861,329.5003317130927 1175.806243226185,369.70721742808314 c139.2531163787475,14.709836237191638 414.8173818888042,6.864590244022764 541.3219735286523,-15.690491986337747 c520.728202796584,-93.16229616888037 951.2360766717259,-405.0108243973431 1322.9046055981014,-961.042634163187 c59.82000069791266,-90.22032892144205 89.23967317229594,-127.4852473889942 85.3170501757115,-107.87213240607201 c-2.9419672474383276,16.671147735483856 -12.74852473889942,75.51049268425041 -20.593770732068293,132.38852613472474 c-87.27836167400372,600.1613184774188 -285.3708230015178,1225.8196864326364 -568.7803345047433,1799.5032996831103 c-201.0344285749524,407.9527916447814 -405.9914801464892,737.4531233578741 -670.7685324159387,1078.7213240607202 c-149.0596738702086,192.2085268326374 -379.5137749195443,456.00492335294075 -398.14623415332034,456.00492335294075 c-4.903278745730546,-0.9806557491461092 -87.27836167400372,-50.01344320645157 -181.4213135920302,-110.81409965351034 z" id="svg_5" opacity="1" stroke="#ef8d2b" fill="#f78800"/>
<path d="M7026.713886108398,9915.030614223615 c-13.729180488045529,-21.574426481214402 -210.84098606641348,-172.59541184971522 -313.80983972675494,-239.28000279165065 c-391.2816439092976,-255.9511505271345 -890.4354202246672,-456.00492335294075 -1578.8557561252358,-632.5229581992404 c-308.9065609810244,-79.43311568083485 -573.6836132504739,-137.2918048804553 -1280.7364083848186,-279.4868885066411 c-1025.7659136068303,-206.91836306982904 -1412.1442787703972,-299.1000034895633 -1857.3619888827309,-443.25639861404136 c-953.1973881700181,-308.9065609810244 -1563.165264138898,-737.4531233578741 -1909.3367435874745,-1341.5370648318774 c-59.82000069791266,-103.94950940948758 -61.78131219620488,-109.83344390436423 -68.64590244022764,-196.13114982922184 c-9.806557491461092,-138.2724606296014 -8.825901742314983,-425.6045951294114 1.9613114982922184,-623.6970564569255 c59.82000069791266,-1066.9534550709668 370.6878731772293,-2063.299696203414 928.6809944413654,-2968.4449526652725 c179.46000209373798,-291.2547574963944 525.6314815423145,-754.124271093358 554.0704982675517,-741.3757463544586 c6.864590244022764,2.9419672474383276 99.04623066375703,111.79475540265645 203.9763958223907,242.22197003908897 c1801.4646111814027,2230.9918293073983 3763.756765222767,4247.220049551799 5945.71580707286,6106.543349932822 c149.0596738702086,126.50459163984809 270.66098676432614,235.3573797950662 271.6416425134722,240.26065854079675 c0,6.864590244022764 -879.6482069840599,885.5321414789366 -889.4547644755211,887.4934529772288 c-0.9806557491461092,0 -4.903278745730546,-4.903278745730546 -7.8452459931688745,-10.787213240607201 z" id="svg_6" opacity="1" stroke="#ef8d2b" fill="#f78800"/>
<path d="M7976.969307030978,8598.990598869537 c-1831.864939404932,-1385.6665735434524 -3607.832501108536,-3143.982331762426 -5815.288592436427,-5758.410558985954 c-408.9334473939275,-485.4245958273241 -494.25049756963904,-587.4127937385194 -494.25049756963904,-594.2773839825422 c0,-3.9226229965844372 76.49114843339652,-83.35573867741928 168.67278885313078,-177.49869059544577 c974.7718146512325,-978.694437647817 2229.030517809106,-1607.294772850473 3577.4321728850064,-1791.6580536899414 c271.6416425134722,-37.26491846755215 241.24131428994286,-38.24557421669826 355.97803694003767,17.651803484629966 c310.8678724793166,152.98229686679304 582.5095149927888,411.87541464136586 807.0796815472479,768.8341073305496 c196.13114982922184,310.8678724793166 408.9334473939275,829.6347637776084 543.2832850269444,1325.8465728455396 c97.08491916546481,355.97803694003767 182.4019693411763,727.6465658664131 284.39016725237167,1230.722965178367 c10.787213240607201,50.99409895559768 58.83934494876655,289.29344599810224 106.8914766569259,529.554104538899 c206.91836306982904,1022.8239463593919 301.06131498785555,1410.182967272105 466.792136593548,1917.1819895806434 c35.30360696925993,106.8914766569259 140.23377212789362,385.3977094144209 183.38262509032242,485.4245958273241 c228.49278955104344,523.6701700440224 505.03771081024627,912.0098467058815 836.4993540216311,1171.8836202296004 c27.458360976091058,21.574426481214402 50.99409895559768,39.22622996584437 52.9554104538899,41.187541464136594 c5.883934494876655,3.9226229965844372 -813.9442717912707,1008.1141101222003 -825.7121407810239,1010.0754216204925 c-6.864590244022764,1.9613114982922184 -117.6786898975331,-77.47180418254263 -248.10590453396563,-176.51803484629966 z" id="svg_7" opacity="1" stroke="#ef8d2b" fill="#f78800"/>
<path d="M10385.459826933822,8183.192561231586 c-18.632459233776075,-1.9613114982922184 -81.39442717912706,-12.74852473889942 -139.2531163787475,-22.55508223036051 c-277.52557700834893,-51.97475470474379 -496.21180906793126,-166.71147735483856 -634.4842696975327,-333.42295470967713 c-59.82000069791266,-71.58786968766597 -63.7426236944971,-103.94950940948758 -24.51639372865273,-203.9763958223907 c43.148852962428805,-108.85278815521812 80.41377142998095,-171.6147561005691 365.7845944314987,-619.774433460341 c211.8216418155596,-331.4616432113849 345.19082369943044,-551.1285310201133 466.792136593548,-764.9114843339652 c686.4590244022764,-1209.1485386971526 937.5068961836804,-2297.6764202493337 763.9308285848191,-3314.616432113849 c-24.51639372865273,-142.19508362618583 -78.45245993168874,-369.70721742808314 -105.9108209077798,-448.1596773597719 c-7.8452459931688745,-23.53573797950662 -11.76786898975331,-42.168197213282696 -7.8452459931688745,-41.187541464136594 c8.825901742314983,0 175.53737909715355,209.86033031726737 268.6996752660339,337.34557770626157 c655.078040429601,895.3386989703977 1052.2436188337751,1899.5301860960135 1179.7288662227693,2981.193477404172 c39.22622996584437,340.2875449536999 53.936066203036006,756.0855825916502 35.30360696925993,1048.3209958371908 l-11.76786898975331,185.34393658861464 l-40.20688571499048,79.43311568083485 c-302.04197073700163,602.1226299757111 -923.7777156956349,1018.9013233628075 -1655.3469045586323,1110.1023080333957 c-100.02688641290314,12.74852473889942 -369.70721742808314,16.671147735483856 -460.9082020986713,6.864590244022764 z" id="svg_8" opacity="1" stroke="#ef8d2b" fill="#f78800"/>
<path d="M9086.090959315226,7416.319765399328 c-354.99738119089153,-128.4659031381403 -635.4649254466788,-551.1285310201133 -862.9770592485761,-1300.3495233677409 c-121.60131289411754,-402.0688571499048 -211.8216418155596,-782.5632878185952 -406.97213589563535,-1725.9541184971522 c-238.29934704250454,-1151.2898494975323 -335.38426620796935,-1565.1265756371904 -481.50197283073965,-2054.473794461099 c-209.86033031726737,-705.0914836360525 -457.966234851233,-1248.374768662997 -741.3757463544586,-1625.927232084249 c-100.02688641290314,-133.36918188387085 -258.89311777457283,-302.04197073700163 -370.6878731772293,-392.2622996584437 l-78.45245993168874,-63.7426236944971 l299.1000034895633,5.883934494876655 c935.5455846853881,17.651803484629966 1823.039037662617,240.26065854079675 2672.2869164231474,668.8072209176464 c564.8577115081589,285.3708230015178 1030.6691923525607,614.8711547146105 1507.2678864375698,1064.9921435726746 c141.21442787703972,134.34983763301696 144.15639512447805,138.2724606296014 194.16983833092962,240.26065854079675 c93.16229616888037,190.24721533434519 154.94360836508525,410.8947588922198 192.2085268326374,680.5750899073998 c21.574426481214402,150.0403296193547 24.51639372865273,560.9350885115745 5.883934494876655,745.298369351043 c-56.878033450474334,563.8770557590128 -214.76360906299792,1170.9029644804543 -462.86951359696354,1784.7934634459189 c-317.7324627233394,784.5245993168874 -749.2209923476274,1501.383951942693 -1115.9862425282722,1854.4200216352924 c-105.9108209077798,102.96885366034147 -108.85278815521812,104.93016515863368 -176.51803484629966,120.62065714497143 c-87.27836167400372,19.613114982922184 -112.77541115180256,19.613114982922184 -173.57606759886133,-2.9419672474383276 z" id="svg_9" opacity="1" stroke="#ef8d2b" fill="#f78800"/>
</g></g></svg>